<mxfile host="app.diagrams.net" modified="2022-08-26T11:11:55.390Z" agent="5.0 (Windows NT 10.0; Win64; x64) AppleWebKit/537.36 (KHTML, like Gecko) Chrome/87.0.4280.88 Safari/537.36" etag="wfxVxsJ6PkENq34qaNQj" version="20.2.7" type="github">
  <diagram name="Page-1" id="929967ad-93f9-6ef4-fab6-5d389245f69c">
    <mxGraphModel dx="1182" dy="525" grid="1" gridSize="10" guides="1" tooltips="1" connect="1" arrows="1" fold="1" page="1" pageScale="1.5" pageWidth="1169" pageHeight="826" background="none" math="0" shadow="0">
      <root>
        <mxCell id="0" style=";html=1;" />
        <mxCell id="1" style=";html=1;" parent="0" />
        <mxCell id="1672d66443f91eb5-23" value="&lt;span style=&quot;font-family: Arial, sans-serif; background-color: initial;&quot;&gt;MODELAGEM UML DO SISTEMA  DE&lt;br/&gt;CADASTRO DE CLIENTES&lt;/span&gt;&lt;span style=&quot;font-family: Arial, sans-serif;&quot;&gt;- CLIENTLAB&lt;/span&gt;" style="text;strokeColor=none;fillColor=none;html=1;fontSize=24;fontStyle=1;verticalAlign=middle;align=center;" parent="1" vertex="1">
          <mxGeometry x="120" y="40" width="1510" height="40" as="geometry" />
        </mxCell>
        <mxCell id="isSZJegvElQQDSyRwkyT-27" style="edgeStyle=orthogonalEdgeStyle;rounded=0;jumpSize=7;orthogonalLoop=1;jettySize=auto;html=1;fontSize=20;endArrow=diamondThin;endFill=1;endSize=22;entryX=1;entryY=0.5;entryDx=0;entryDy=0;" parent="1" source="isSZJegvElQQDSyRwkyT-1" target="isSZJegvElQQDSyRwkyT-6" edge="1">
          <mxGeometry relative="1" as="geometry">
            <mxPoint x="960" y="160" as="targetPoint" />
            <Array as="points">
              <mxPoint x="1250" y="170" />
              <mxPoint x="960" y="170" />
              <mxPoint x="960" y="169" />
            </Array>
          </mxGeometry>
        </mxCell>
        <mxCell id="isSZJegvElQQDSyRwkyT-1" value="Pesssoa Jurídica" style="swimlane;fontStyle=1;childLayout=stackLayout;horizontal=1;startSize=26;fillColor=#ffcd28;horizontalStack=0;resizeParent=1;resizeParentMax=0;resizeLast=0;collapsible=1;marginBottom=0;fontSize=14;gradientColor=#ffa500;strokeColor=#d79b00;" parent="1" vertex="1">
          <mxGeometry x="1160" y="280" width="180" height="136" as="geometry" />
        </mxCell>
        <mxCell id="isSZJegvElQQDSyRwkyT-2" value="+ cnpj: string" style="text;strokeColor=none;fillColor=none;align=left;verticalAlign=top;spacingLeft=4;spacingRight=4;overflow=hidden;rotatable=0;points=[[0,0.5],[1,0.5]];portConstraint=eastwest;" parent="isSZJegvElQQDSyRwkyT-1" vertex="1">
          <mxGeometry y="26" width="180" height="26" as="geometry" />
        </mxCell>
        <mxCell id="isSZJegvElQQDSyRwkyT-3" value="+ razãoSocial: string" style="text;strokeColor=none;fillColor=none;align=left;verticalAlign=top;spacingLeft=4;spacingRight=4;overflow=hidden;rotatable=0;points=[[0,0.5],[1,0.5]];portConstraint=eastwest;" parent="isSZJegvElQQDSyRwkyT-1" vertex="1">
          <mxGeometry y="52" width="180" height="26" as="geometry" />
        </mxCell>
        <mxCell id="isSZJegvElQQDSyRwkyT-4" value="+ dataNascimento: date Time" style="text;strokeColor=none;fillColor=none;align=left;verticalAlign=top;spacingLeft=4;spacingRight=4;overflow=hidden;rotatable=0;points=[[0,0.5],[1,0.5]];portConstraint=eastwest;" parent="isSZJegvElQQDSyRwkyT-1" vertex="1">
          <mxGeometry y="78" width="180" height="32" as="geometry" />
        </mxCell>
        <mxCell id="isSZJegvElQQDSyRwkyT-31" value="+ email: string" style="text;strokeColor=none;fillColor=none;align=left;verticalAlign=top;spacingLeft=4;spacingRight=4;overflow=hidden;rotatable=0;points=[[0,0.5],[1,0.5]];portConstraint=eastwest;" parent="isSZJegvElQQDSyRwkyT-1" vertex="1">
          <mxGeometry y="110" width="180" height="26" as="geometry" />
        </mxCell>
        <mxCell id="isSZJegvElQQDSyRwkyT-5" value="Pessoa" style="swimlane;fontStyle=1;childLayout=stackLayout;horizontal=1;startSize=26;fillColor=#dae8fc;horizontalStack=0;resizeParent=1;resizeParentMax=0;resizeLast=0;collapsible=1;marginBottom=0;fontSize=14;strokeColor=#6c8ebf;gradientColor=#7ea6e0;" parent="1" vertex="1">
          <mxGeometry x="807" y="130" width="140" height="104" as="geometry" />
        </mxCell>
        <mxCell id="isSZJegvElQQDSyRwkyT-6" value="+ nome: string" style="text;strokeColor=none;fillColor=none;align=left;verticalAlign=top;spacingLeft=4;spacingRight=4;overflow=hidden;rotatable=0;points=[[0,0.5],[1,0.5]];portConstraint=eastwest;" parent="isSZJegvElQQDSyRwkyT-5" vertex="1">
          <mxGeometry y="26" width="140" height="26" as="geometry" />
        </mxCell>
        <mxCell id="isSZJegvElQQDSyRwkyT-7" value="+ field: type" style="text;strokeColor=none;fillColor=none;align=left;verticalAlign=top;spacingLeft=4;spacingRight=4;overflow=hidden;rotatable=0;points=[[0,0.5],[1,0.5]];portConstraint=eastwest;" parent="isSZJegvElQQDSyRwkyT-5" vertex="1">
          <mxGeometry y="52" width="140" height="26" as="geometry" />
        </mxCell>
        <mxCell id="isSZJegvElQQDSyRwkyT-8" value="+ field: type" style="text;strokeColor=none;fillColor=none;align=left;verticalAlign=top;spacingLeft=4;spacingRight=4;overflow=hidden;rotatable=0;points=[[0,0.5],[1,0.5]];portConstraint=eastwest;" parent="isSZJegvElQQDSyRwkyT-5" vertex="1">
          <mxGeometry y="78" width="140" height="26" as="geometry" />
        </mxCell>
        <mxCell id="isSZJegvElQQDSyRwkyT-26" style="edgeStyle=orthogonalEdgeStyle;rounded=0;orthogonalLoop=1;jettySize=auto;html=1;fontSize=20;entryX=0;entryY=0.5;entryDx=0;entryDy=0;endArrow=diamondThin;endFill=1;jumpSize=7;endSize=22;" parent="1" source="isSZJegvElQQDSyRwkyT-9" target="isSZJegvElQQDSyRwkyT-6" edge="1">
          <mxGeometry relative="1" as="geometry">
            <mxPoint x="495" y="170" as="targetPoint" />
            <Array as="points">
              <mxPoint x="500" y="169" />
            </Array>
          </mxGeometry>
        </mxCell>
        <mxCell id="isSZJegvElQQDSyRwkyT-9" value="Pessoa Física" style="swimlane;fontStyle=1;childLayout=stackLayout;horizontal=1;startSize=26;fillColor=#d5e8d4;horizontalStack=0;resizeParent=1;resizeParentMax=0;resizeLast=0;collapsible=1;marginBottom=0;fontSize=14;gradientColor=#97d077;strokeColor=#82b366;" parent="1" vertex="1">
          <mxGeometry x="410" y="280" width="170" height="104" as="geometry" />
        </mxCell>
        <mxCell id="isSZJegvElQQDSyRwkyT-10" value="+ cpf: string" style="text;strokeColor=none;fillColor=none;align=left;verticalAlign=top;spacingLeft=4;spacingRight=4;overflow=hidden;rotatable=0;points=[[0,0.5],[1,0.5]];portConstraint=eastwest;" parent="isSZJegvElQQDSyRwkyT-9" vertex="1">
          <mxGeometry y="26" width="170" height="26" as="geometry" />
        </mxCell>
        <mxCell id="isSZJegvElQQDSyRwkyT-11" value="+ dataNascimento: date Time" style="text;strokeColor=none;fillColor=none;align=left;verticalAlign=top;spacingLeft=4;spacingRight=4;overflow=hidden;rotatable=0;points=[[0,0.5],[1,0.5]];portConstraint=eastwest;" parent="isSZJegvElQQDSyRwkyT-9" vertex="1">
          <mxGeometry y="52" width="170" height="26" as="geometry" />
        </mxCell>
        <mxCell id="isSZJegvElQQDSyRwkyT-12" value="+ email: string" style="text;strokeColor=none;fillColor=none;align=left;verticalAlign=top;spacingLeft=4;spacingRight=4;overflow=hidden;rotatable=0;points=[[0,0.5],[1,0.5]];portConstraint=eastwest;" parent="isSZJegvElQQDSyRwkyT-9" vertex="1">
          <mxGeometry y="78" width="170" height="26" as="geometry" />
        </mxCell>
        <mxCell id="isSZJegvElQQDSyRwkyT-28" style="edgeStyle=orthogonalEdgeStyle;rounded=0;jumpSize=7;orthogonalLoop=1;jettySize=auto;html=1;fontSize=20;endArrow=diamondThin;endFill=1;endSize=22;" parent="1" source="isSZJegvElQQDSyRwkyT-13" edge="1">
          <mxGeometry relative="1" as="geometry">
            <mxPoint x="880" y="240" as="targetPoint" />
            <Array as="points">
              <mxPoint x="880" y="240" />
              <mxPoint x="880" y="240" />
            </Array>
          </mxGeometry>
        </mxCell>
        <mxCell id="isSZJegvElQQDSyRwkyT-13" value="Endereço" style="swimlane;fontStyle=1;childLayout=stackLayout;horizontal=1;startSize=26;fillColor=#f5f5f5;horizontalStack=0;resizeParent=1;resizeParentMax=0;resizeLast=0;collapsible=1;marginBottom=0;fontSize=14;gradientColor=#b3b3b3;strokeColor=#666666;" parent="1" vertex="1">
          <mxGeometry x="810" y="404" width="140" height="140" as="geometry" />
        </mxCell>
        <mxCell id="isSZJegvElQQDSyRwkyT-14" value="+ logradouro: string" style="text;strokeColor=none;fillColor=none;align=left;verticalAlign=top;spacingLeft=4;spacingRight=4;overflow=hidden;rotatable=0;points=[[0,0.5],[1,0.5]];portConstraint=eastwest;" parent="isSZJegvElQQDSyRwkyT-13" vertex="1">
          <mxGeometry y="26" width="140" height="26" as="geometry" />
        </mxCell>
        <mxCell id="isSZJegvElQQDSyRwkyT-15" value="+ numero: int" style="text;strokeColor=none;fillColor=none;align=left;verticalAlign=top;spacingLeft=4;spacingRight=4;overflow=hidden;rotatable=0;points=[[0,0.5],[1,0.5]];portConstraint=eastwest;" parent="isSZJegvElQQDSyRwkyT-13" vertex="1">
          <mxGeometry y="52" width="140" height="26" as="geometry" />
        </mxCell>
        <mxCell id="isSZJegvElQQDSyRwkyT-16" value="+ complemento: string" style="text;strokeColor=none;fillColor=none;align=left;verticalAlign=top;spacingLeft=4;spacingRight=4;overflow=hidden;rotatable=0;points=[[0,0.5],[1,0.5]];portConstraint=eastwest;" parent="isSZJegvElQQDSyRwkyT-13" vertex="1">
          <mxGeometry y="78" width="140" height="32" as="geometry" />
        </mxCell>
        <mxCell id="isSZJegvElQQDSyRwkyT-24" value="+ residencial: boot" style="text;strokeColor=none;fillColor=none;align=left;verticalAlign=top;spacingLeft=4;spacingRight=4;overflow=hidden;rotatable=0;points=[[0,0.5],[1,0.5]];portConstraint=eastwest;" parent="isSZJegvElQQDSyRwkyT-13" vertex="1">
          <mxGeometry y="110" width="140" height="30" as="geometry" />
        </mxCell>
        <mxCell id="isSZJegvElQQDSyRwkyT-17" value="Imposto" style="swimlane;fontStyle=1;childLayout=stackLayout;horizontal=1;startSize=26;fillColor=#e6d0de;horizontalStack=0;resizeParent=1;resizeParentMax=0;resizeLast=0;collapsible=1;marginBottom=0;fontSize=14;gradientColor=#d5739d;strokeColor=#996185;" parent="1" vertex="1">
          <mxGeometry x="580" y="440" width="140" height="104" as="geometry" />
        </mxCell>
        <mxCell id="isSZJegvElQQDSyRwkyT-18" value="+ field: type" style="text;strokeColor=none;fillColor=none;align=left;verticalAlign=top;spacingLeft=4;spacingRight=4;overflow=hidden;rotatable=0;points=[[0,0.5],[1,0.5]];portConstraint=eastwest;" parent="isSZJegvElQQDSyRwkyT-17" vertex="1">
          <mxGeometry y="26" width="140" height="26" as="geometry" />
        </mxCell>
        <mxCell id="isSZJegvElQQDSyRwkyT-19" value="+ field: type" style="text;strokeColor=none;fillColor=none;align=left;verticalAlign=top;spacingLeft=4;spacingRight=4;overflow=hidden;rotatable=0;points=[[0,0.5],[1,0.5]];portConstraint=eastwest;" parent="isSZJegvElQQDSyRwkyT-17" vertex="1">
          <mxGeometry y="52" width="140" height="26" as="geometry" />
        </mxCell>
        <mxCell id="isSZJegvElQQDSyRwkyT-20" value="+ field: type" style="text;strokeColor=none;fillColor=none;align=left;verticalAlign=top;spacingLeft=4;spacingRight=4;overflow=hidden;rotatable=0;points=[[0,0.5],[1,0.5]];portConstraint=eastwest;" parent="isSZJegvElQQDSyRwkyT-17" vertex="1">
          <mxGeometry y="78" width="140" height="26" as="geometry" />
        </mxCell>
        <mxCell id="isSZJegvElQQDSyRwkyT-21" value="Banco de Dados" style="swimlane;fontStyle=0;childLayout=stackLayout;horizontal=1;startSize=26;fillColor=#f8cecc;horizontalStack=0;resizeParent=1;resizeParentMax=0;resizeLast=0;collapsible=1;marginBottom=0;fontSize=14;gradientColor=#ea6b66;strokeColor=#b85450;" parent="1" vertex="1">
          <mxGeometry x="1020" y="440" width="140" height="78" as="geometry" />
        </mxCell>
        <mxCell id="isSZJegvElQQDSyRwkyT-22" value="+ pessoaFísica: string" style="text;strokeColor=none;fillColor=none;align=left;verticalAlign=top;spacingLeft=4;spacingRight=4;overflow=hidden;rotatable=0;points=[[0,0.5],[1,0.5]];portConstraint=eastwest;" parent="isSZJegvElQQDSyRwkyT-21" vertex="1">
          <mxGeometry y="26" width="140" height="26" as="geometry" />
        </mxCell>
        <mxCell id="isSZJegvElQQDSyRwkyT-23" value="+ pessoaJurídica: string" style="text;strokeColor=none;fillColor=none;align=left;verticalAlign=top;spacingLeft=4;spacingRight=4;overflow=hidden;rotatable=0;points=[[0,0.5],[1,0.5]];portConstraint=eastwest;" parent="isSZJegvElQQDSyRwkyT-21" vertex="1">
          <mxGeometry y="52" width="140" height="26" as="geometry" />
        </mxCell>
        <mxCell id="isSZJegvElQQDSyRwkyT-29" style="edgeStyle=orthogonalEdgeStyle;rounded=0;jumpSize=7;orthogonalLoop=1;jettySize=auto;html=1;fontSize=20;endArrow=diamondThin;endFill=0;endSize=22;entryX=0.5;entryY=0;entryDx=0;entryDy=0;" parent="1" source="isSZJegvElQQDSyRwkyT-8" target="isSZJegvElQQDSyRwkyT-17" edge="1">
          <mxGeometry relative="1" as="geometry">
            <mxPoint x="670" y="221.0000000000001" as="targetPoint" />
          </mxGeometry>
        </mxCell>
        <mxCell id="isSZJegvElQQDSyRwkyT-30" style="edgeStyle=orthogonalEdgeStyle;rounded=0;jumpSize=7;orthogonalLoop=1;jettySize=auto;html=1;fontSize=20;endArrow=diamondThin;endFill=0;endSize=22;entryX=0.429;entryY=0;entryDx=0;entryDy=0;entryPerimeter=0;" parent="1" source="isSZJegvElQQDSyRwkyT-8" target="isSZJegvElQQDSyRwkyT-21" edge="1">
          <mxGeometry relative="1" as="geometry">
            <mxPoint x="1080" y="221.0000000000001" as="targetPoint" />
          </mxGeometry>
        </mxCell>
      </root>
    </mxGraphModel>
  </diagram>
</mxfile>
